<svg xmlns="http://www.w3.org/2000/svg" id="uuid-9b5f23c5-9dff-4aa9-8b39-29dff56d2cd8" viewBox="0 0 345.2 123.7"><defs><style>.uuid-b03b49d1-78ed-4380-a35f-01aef3f29a41{stroke:#003049;}.uuid-b03b49d1-78ed-4380-a35f-01aef3f29a41,.uuid-acea979f-ad3d-4c84-a143-f94d4805d19c,.uuid-90d8a5ef-4445-46a2-bbf3-565a576ff738{fill:none;stroke-linecap:round;stroke-linejoin:round;}.uuid-acea979f-ad3d-4c84-a143-f94d4805d19c{stroke:#f77f00;}.uuid-90d8a5ef-4445-46a2-bbf3-565a576ff738{stroke:#d62828;}</style></defs><g id="uuid-e84acb6b-5a5f-4b35-8459-21950f7d7ab3"><g><g><polyline class="uuid-b03b49d1-78ed-4380-a35f-01aef3f29a41" points="202.6 35.4 209.1 31.7 205.5 35.5 210.7 32.5 207.1 36.2 211.9 33.5 208.3 37.3 212.9 34.7 208.9 38.6 213.6 35.9 209.1 40.1 214.1 37.3 209.1 41.7 214.4 38.6 208.5 43.4 214.6 39.9"></polyline><polyline class="uuid-b03b49d1-78ed-4380-a35f-01aef3f29a41" points="196.6 31 197.1 30.7 196.6 32.6 199.8 30.7 196.6 34.1 202.5 30.7 196.6 35.7 205.1 30.8 196.6 37.7 207.8 31.2 196.6 39.9 202 36.8 196.6 41.2 202 38.1 196.6 43.5 202 40.4 196.6 44.8 202 41.7 196.6 46.7 202 43.6 196.6 48.5 202 45.4 196.6 50.2 204.5 45.6 200.1 50.4 214.5 42.1 202.6 50.4 214.1 43.7 205.7 50.3 213.1 46"></polyline><polyline class="uuid-b03b49d1-78ed-4380-a35f-01aef3f29a41" points="217.2 31 217.7 30.7 217.2 32.6 220.4 30.7 217.2 34.1 222.6 31 217.2 35.6 222.6 32.5 217.2 37.7 222.6 34.5 217.2 39.9 222.6 36.7 217.2 41.2 222.6 38 217.2 43.4 222.6 40.3 217.2 44.8 222.6 41.6 217.2 46.7 222.6 43.6 217.2 48.5 222.6 45.3 217.2 50.1 222.6 47 220.6 50.4 222.6 49.3"></polyline><polyline class="uuid-b03b49d1-78ed-4380-a35f-01aef3f29a41" points="231.7 47.2 241.8 41.4 235.3 47.2 242.4 43 238.3 47.2 242.9 44.5 238.8 48.8 243.5 46.1 239.2 49.9 243.9 47.2 242.3 50.4 244.6 49 244.6 50.4 245 50.1"></polyline><polyline class="uuid-b03b49d1-78ed-4380-a35f-01aef3f29a41" points="234.8 36.8 239.2 34.2 235.3 38.3 239.7 35.7 235.8 39.6 240.2 37.1 236.3 41.1 240.8 38.5 236.8 42.5 241.3 39.9"></polyline><polyline class="uuid-b03b49d1-78ed-4380-a35f-01aef3f29a41" points="231.5 31.1 232.2 30.7 230.8 33.1 234.9 30.7 230.1 35.1 237.6 30.7 229.4 37 238.3 31.8 228.5 39.5 238.9 33.5 227.4 42.3 234.1 38.5 226.8 44 233.6 40.1 225.8 46.9 232.7 42.9 225.2 48.6 234.7 43 225.3 50.4 241.7 41 228.4 50.4 230.6 49.1"></polyline><polyline class="uuid-b03b49d1-78ed-4380-a35f-01aef3f29a41" points="246.4 44.6 246.8 44.3 246.8 46.4 250.4 44.3 247.5 47.7 252.3 45 248.7 49 253.5 46.2 249.8 49.6 261.5 42.9 252.3 50.4 261.7 45.1 255 50.6 261.1 47"></polyline><polyline class="uuid-b03b49d1-78ed-4380-a35f-01aef3f29a41" points="253.7 34.7 258.8 31.7 255.3 35.5 260.1 32.8 256.5 36.5 260.8 34 259.5 36.5 261.3 35.5"></polyline><polyline class="uuid-b03b49d1-78ed-4380-a35f-01aef3f29a41" points="247.8 32.6 250.9 30.8 246.6 34.8 254.2 30.4 246.4 36.5 256.4 30.7 246.6 37.9 258.1 31.3 247.3 39.5 252.3 36.6 248.8 40.9 253.9 37.9 250 41.5 255.3 38.4 252.4 42.4 257.7 39.3 253.8 42.9 258.9 39.9 255.5 43.8 260.3 41 255.8 45.4 261.2 42.3"></polyline><polyline class="uuid-b03b49d1-78ed-4380-a35f-01aef3f29a41" points="275.7 35.4 282.2 31.7 278.5 35.5 283.7 32.5 280.2 36.2 284.9 33.5 281.3 37.3 285.9 34.7 282 38.6 286.6 35.9 282.2 40.1 287.2 37.3 282.1 41.7 287.5 38.6 281.5 43.4 287.6 39.9"></polyline><polyline class="uuid-b03b49d1-78ed-4380-a35f-01aef3f29a41" points="269.7 31 270.2 30.7 269.7 32.6 272.9 30.7 269.7 34.1 275.6 30.7 269.7 35.7 278.2 30.8 269.7 37.7 280.9 31.2 269.7 39.9 275 36.8 269.7 41.2 275.1 38.1 269.7 43.5 275.1 40.4 269.7 44.8 275.1 41.7 269.7 46.7 275.1 43.6 269.7 48.5 275.1 45.4 269.7 50.2 277.5 45.6 273.2 50.4 287.6 42.1 275.7 50.4 287.2 43.7 278.8 50.3 286.1 46"></polyline><polyline class="uuid-b03b49d1-78ed-4380-a35f-01aef3f29a41" points="296.1 42.5 302 39.1 299.7 42.5 302 41.2"></polyline><polyline class="uuid-b03b49d1-78ed-4380-a35f-01aef3f29a41" points="296.1 35.1 302.8 31.2 299.3 35.1 302.8 33 302.2 35.1 302.8 34.7"></polyline><polyline class="uuid-b03b49d1-78ed-4380-a35f-01aef3f29a41" points="290.2 31 290.7 30.7 290.2 32.6 293.4 30.7 290.2 34.1 296.1 30.7 290.2 35.6 298.8 30.7 290.2 37.7 302.3 30.7 290.2 39.9 295.7 36.7 290.2 41.2 295.7 38 290.2 43.4 299.1 38.3 290.2 44.8 301.4 38.3 290.2 46.7 295.7 43.6 290.2 48.5 295.7 45.3 290.2 50.1 297.3 46.1 293.7 50.4 301.2 46 296.1 50.4 302.8 46.6 299.1 50.4 302.8 48.2 301.7 50.4 302.8 49.8"></polyline><polyline class="uuid-b03b49d1-78ed-4380-a35f-01aef3f29a41" points="205.4 62.5 205.9 62.2 205.4 64.5 209.4 62.2 205.6 66.1 212.4 62.2 209.1 66.1 215.6 62.3 210.7 66.4 215.6 63.6"></polyline><polyline class="uuid-b03b49d1-78ed-4380-a35f-01aef3f29a41" points="205.2 58.6 211.7 54.9 208 58.8 213.1 55.9 209.2 59.8 214 57 211.6 60.2 214.8 58.3 214.4 60.2 215.3 59.7"></polyline><polyline class="uuid-b03b49d1-78ed-4380-a35f-01aef3f29a41" points="199.2 56.1 202.9 54 197.3 58.8 206.4 53.5 196.6 60.8 208.7 53.7 196.3 62.4 210.4 54.3 196.3 64.4 202.2 61 196.6 66.5 201.7 63.5 197 67.6 201.8 64.8 197.8 69.3 202.5 66.7 198.5 70.3 203.2 67.6 199.8 71.5 204.9 68.5 201.3 72.4 207.7 68.7 202.9 73.1 215.6 65.8 206.1 73.5 215.2 68.3 209.2 73.1 213.4 70.8"></polyline><polyline class="uuid-b03b49d1-78ed-4380-a35f-01aef3f29a41" points="224 70.2 234.1 64.4 227.6 70.2 234.7 66 230.6 70.2 235.3 67.5 231.1 71.8 235.8 69.1 231.5 72.9 236.2 70.2 234.6 73.4 236.9 72 236.9 73.4 237.3 73.1"></polyline><polyline class="uuid-b03b49d1-78ed-4380-a35f-01aef3f29a41" points="227.1 59.8 231.5 57.2 227.7 61.3 232 58.7 228.1 62.6 232.5 60.1 228.6 64.1 233.1 61.5 229.1 65.5 233.6 62.9"></polyline><polyline class="uuid-b03b49d1-78ed-4380-a35f-01aef3f29a41" points="223.8 54.1 224.5 53.7 223.1 56.1 227.2 53.7 222.4 58.1 229.9 53.7 221.7 60 230.6 54.8 220.8 62.5 231.2 56.5 219.7 65.3 226.4 61.5 219.1 67 225.9 63.1 218.1 69.9 225 65.9 217.5 71.6 227 66 217.6 73.4 234 64 220.7 73.4 222.9 72.1"></polyline><polyline class="uuid-b03b49d1-78ed-4380-a35f-01aef3f29a41" points="245.2 66.1 255.2 60.4 246.1 67.6 254.5 62.8 246.8 68.9 251.2 66.4 247.7 70.4 252.1 67.9 248.2 71.4 252.6 68.9 249.1 73.1 253.6 70.6 251.6 73.4 254.3 71.8 254.5 73.4 255 73"></polyline><polyline class="uuid-b03b49d1-78ed-4380-a35f-01aef3f29a41" points="245.3 58.2 251.7 54.5 248.3 58.3 253.2 55.5 249.5 59.3 254.2 56.5 249.7 60.9 254.8 57.9"></polyline><polyline class="uuid-b03b49d1-78ed-4380-a35f-01aef3f29a41" points="239.3 54 239.8 53.7 239.3 55.6 242.5 53.7 239.3 57.1 245.2 53.7 239.3 58.7 247.8 53.7 239.3 60.7 250.7 54.1 239.3 62.9 244.7 59.8 239.3 64.2 244.7 61.1 239.3 66.5 246.2 62.5 239.3 67.8 255 58.7 239.3 69.7 244.6 66.6 239.3 71.5 244.7 68.4 239.3 73.2 244.7 70 242.8 73.4 244.7 72.3"></polyline><polyline class="uuid-b03b49d1-78ed-4380-a35f-01aef3f29a41" points="263.7 70.2 273.8 64.4 267.2 70.2 274.4 66 270.2 70.2 274.9 67.5 270.8 71.8 275.5 69.1 271.2 72.9 275.9 70.2 274.2 73.4 276.6 72 276.6 73.4 277 73.1"></polyline><polyline class="uuid-b03b49d1-78ed-4380-a35f-01aef3f29a41" points="266.8 59.8 271.1 57.2 267.3 61.3 271.7 58.7 267.8 62.6 272.2 60.1 268.3 64.1 272.7 61.5 268.7 65.5 273.2 62.9"></polyline><polyline class="uuid-b03b49d1-78ed-4380-a35f-01aef3f29a41" points="263.5 54.1 264.1 53.7 262.8 56.1 266.8 53.7 262 58.1 269.6 53.7 261.3 60 270.3 54.8 260.4 62.5 270.9 56.5 259.4 65.3 266.1 61.5 258.8 67 265.5 63.1 257.7 69.9 264.7 65.9 257.1 71.6 266.7 66 257.2 73.4 273.6 64 260.4 73.4 262.5 72.1"></polyline><polyline class="uuid-b03b49d1-78ed-4380-a35f-01aef3f29a41" points="291.7 54 292.2 53.7 291.7 56 295.7 53.7 291.7 57.8 297.1 54.6 291.7 59.7 297.1 56.6 291.7 61 297.1 57.9 291.7 63.3 297.1 60.1 291.7 64.7 297.1 61.5"></polyline><polyline class="uuid-b03b49d1-78ed-4380-a35f-01aef3f29a41" points="284.5 62.5 288.5 60.1 285.3 63.8 289.4 61.5 286.1 65 290.2 62.6 286.9 66.3 291 63.9 287.7 67.5 297.1 62 288.5 68.7 297.1 63.7 289.2 69.7 297.1 65.2 289.9 70.7 297.1 66.6 290.7 71.9 297.1 68.1 291.3 72.8 297.1 69.5 293.3 73.4 297.1 71.2 296.1 73.4 297.1 72.8"></polyline><polyline class="uuid-b03b49d1-78ed-4380-a35f-01aef3f29a41" points="278.9 54 279.4 53.7 278.9 55.6 282.1 53.7 278.9 57.1 284.5 53.9 278.9 58.6 285.2 55 278.9 60.7 286.1 56.5 278.9 62.9 287.2 58.1 278.9 64.2 287.8 59 278.9 66.4 284.3 63.3 278.9 67.8 284.3 64.6 278.9 69.7 284.3 66.6 278.9 71.5 284.3 68.3 278.9 73.1 284.3 70 282.4 73.4 284.3 72.3"></polyline><polyline class="uuid-b03b49d1-78ed-4380-a35f-01aef3f29a41" points="310.4 58 315.1 55.3 313.5 58 315.1 57.1"></polyline><polyline class="uuid-b03b49d1-78ed-4380-a35f-01aef3f29a41" points="299.2 54 299.7 53.7 299.2 55.6 302.4 53.7 299.2 57.1 305.1 53.7 300.2 58 307.8 53.7 303.8 58 311.3 53.7 304.4 59.9 315.1 53.7 304.4 61.2 315.1 55 304.4 63.4 309.9 60.3 304.4 64.8 309.9 61.6 304.4 66.7 309.9 63.6 304.4 68.5 309.9 65.3 304.4 70.1 309.9 67 304.4 72.4 309.9 69.2 305.1 73.4 309.9 70.7 308.1 73.4 309.9 72.4"></polyline><polyline class="uuid-b03b49d1-78ed-4380-a35f-01aef3f29a41" points="317.2 54 317.7 53.7 317.2 55.6 320.4 53.7 317.2 57.1 322.6 54 317.2 58.6 322.7 55.5 317.2 60.7 322.7 57.5 317.2 62.9 322.7 59.7 317.2 64.2 322.7 61 317.2 66.4 322.7 63.3 317.2 67.8 322.7 64.6 317.2 69.7 322.7 66.6 317.2 71.5 322.7 68.3 317.2 73.1 322.7 70 320.7 73.4 322.7 72.3"></polyline><polyline class="uuid-b03b49d1-78ed-4380-a35f-01aef3f29a41" points="331.8 70.2 341.8 64.4 335.3 70.2 342.5 66 338.3 70.2 343 67.5 338.9 71.8 343.6 69.1 339.2 72.9 344 70.2 342.3 73.4 344.7 72 344.7 73.4 345.1 73.1"></polyline><polyline class="uuid-b03b49d1-78ed-4380-a35f-01aef3f29a41" points="334.9 59.8 339.2 57.2 335.4 61.3 339.8 58.7 335.9 62.6 340.3 60.1 336.4 64.1 340.8 61.5 336.8 65.5 341.3 62.9"></polyline><polyline class="uuid-b03b49d1-78ed-4380-a35f-01aef3f29a41" points="331.6 54.1 332.2 53.7 330.9 56.1 334.9 53.7 330.1 58.1 337.7 53.7 329.4 60 338.4 54.8 328.5 62.5 339 56.5 327.5 65.3 334.1 61.5 326.9 67 333.6 63.1 325.8 69.9 332.8 65.9 325.2 71.6 334.8 66 325.3 73.4 341.7 64 328.5 73.4 330.6 72.1"></polyline><polyline class="uuid-acea979f-ad3d-4c84-a143-f94d4805d19c" points="196.8 82.4 197.9 81.9 197.9 83.7 202 81.3 198.9 84.7 208.3 79.3 200 85.8 209 80.6 201.1 86.8 210.7 81.3 200.9 88.6 213 81.6 200.6 90.2 215 81.9 200.4 91.8 214.6 83.6 200.5 93.3 211.2 87.1 206.9 90.9 211.4 88.3 208.5 91.8 211.7 89.9 209.9 92.5 211.9 91.4 211.3 93.3 212.1 92.8"></polyline><polyline class="uuid-acea979f-ad3d-4c84-a143-f94d4805d19c" points="205.6 76.1 206.4 75.6 204.5 78.3 207.1 76.8 203.4 80.4 207.7 78"></polyline><polyline class="uuid-acea979f-ad3d-4c84-a143-f94d4805d19c" points="216.8 82.4 217.9 81.9 217.9 83.7 222 81.3 218.9 84.7 228.3 79.3 220 85.8 229 80.6 221.1 86.8 230.7 81.3 220.9 88.6 233 81.6 220.6 90.2 235 81.9 220.4 91.8 234.6 83.6 220.5 93.3 231.2 87.1 226.9 90.9 231.4 88.3 228.5 91.8 231.7 89.9 229.9 92.5 231.9 91.4 231.3 93.3 232.1 92.8"></polyline><polyline class="uuid-acea979f-ad3d-4c84-a143-f94d4805d19c" points="225.6 76.1 226.4 75.6 224.5 78.3 227.1 76.8 223.4 80.4 227.7 78"></polyline><polyline class="uuid-acea979f-ad3d-4c84-a143-f94d4805d19c" points="236.8 82.4 237.9 81.9 237.9 83.7 242 81.3 238.9 84.7 248.3 79.3 240 85.8 249 80.6 241.1 86.8 250.7 81.3 240.9 88.6 253 81.6 240.6 90.2 255 81.9 240.4 91.8 254.6 83.6 240.5 93.3 251.2 87.1 246.9 90.9 251.4 88.3 248.5 91.8 251.7 89.9 249.9 92.5 251.9 91.4 251.3 93.3 252.1 92.8"></polyline><polyline class="uuid-acea979f-ad3d-4c84-a143-f94d4805d19c" points="245.6 76.1 246.4 75.6 244.5 78.3 247.1 76.8 243.4 80.4 247.7 78"></polyline><polyline class="uuid-acea979f-ad3d-4c84-a143-f94d4805d19c" points="256.8 82.4 257.9 81.9 257.9 83.7 262 81.3 258.9 84.7 268.3 79.3 260 85.8 269 80.6 261.1 86.8 270.7 81.3 260.9 88.6 273 81.6 260.6 90.2 275 81.9 260.4 91.8 274.6 83.6 260.5 93.3 271.2 87.1 266.9 90.9 271.4 88.3 268.5 91.8 271.7 89.9 269.9 92.5 271.9 91.4 271.3 93.3 272.1 92.8"></polyline><polyline class="uuid-acea979f-ad3d-4c84-a143-f94d4805d19c" points="265.6 76.1 266.4 75.6 264.5 78.3 267.1 76.8 263.4 80.4 267.7 78"></polyline><polyline class="uuid-acea979f-ad3d-4c84-a143-f94d4805d19c" points="276.8 82.4 277.9 81.9 277.9 83.7 282 81.3 278.9 84.7 288.3 79.3 280 85.8 289 80.6 281.1 86.8 290.7 81.3 280.9 88.6 293 81.6 280.6 90.2 295 81.9 280.4 91.8 294.6 83.6 280.5 93.3 291.2 87.1 286.9 90.9 291.4 88.3 288.5 91.8 291.7 89.9 289.9 92.5 291.9 91.4 291.3 93.3 292.1 92.8"></polyline><polyline class="uuid-acea979f-ad3d-4c84-a143-f94d4805d19c" points="285.6 76.1 286.4 75.6 284.5 78.3 287.1 76.8 283.4 80.4 287.7 78"></polyline></g><g><polyline class="uuid-90d8a5ef-4445-46a2-bbf3-565a576ff738" points="46.9 69.9 83.4 48.8 51.9 69.3 85.1 50.1 54.7 69.5 86.4 51.2 57.2 70.2 87.8 52.6 59.1 71.3 89 54 60.3 72.3 90 55.1 61.4 73.5 91 56.4 62.2 75 91.9 57.8 62.8 76.7 92.9 59.3 63.1 77.8 93.4 60.3 63.3 79.3 94.1 61.5 63.4 80.7 94.6 62.7 63.4 82.1 95.1 63.8 63.3 83.6 95.6 65 63 85.5 96.1 66.3 62.2 87.9 96.6 68 61 89.8 96.9 69.1"></polyline><line class="uuid-90d8a5ef-4445-46a2-bbf3-565a576ff738" x1="39.8" y1="48.3" x2="46.2" y2="44.6"></line><polyline class="uuid-90d8a5ef-4445-46a2-bbf3-565a576ff738" points="48.2 30.7 89.7 6.7 53.7 29.3 91.5 7.5 57.1 29 93 8.3 60.2 29 94.6 9.1 62.8 29.1 96 9.9 65.2 29.4 96.4 11.4 67.2 29.7 95.2 13.5 68.9 30.1 94.2 15.5 70.8 30.6 92.9 17.8 72.3 31.1 91.9 19.8 74.1 31.8 90.5 22.3 75.6 32.5 89.2 24.6 77.1 33.2 88 26.9 79 34.3 86.2 30.1 80.4 35.2 84.9 32.6 81.9 36.4 83.3 35.6"></polyline><polyline class="uuid-90d8a5ef-4445-46a2-bbf3-565a576ff738" points="23.7 10.1 32.4 5 17.8 15 39.7 2.3 14.6 18.4 44.4 1.2 12.4 21.2 48 .6 10.1 24.5 52.2 .2 8.2 27.9 56.3 0 7.2 29.7 58.5 0 5.8 32.8 62.2 .2 5.1 34.6 64.3 .4 4.2 37 67.1 .7 3.4 39.2 69.6 1 2.9 41.2 71.8 1.4 2.2 43.9 74.7 2 1.8 45.5 76.5 2.4 1.4 47.4 78.5 2.9 1.2 49.1 80.3 3.4 .8 51.4 82.7 4.1 .6 52.8 84.2 4.6 .4 54.7 86.1 5.3 .3 56.9 88.3 6.1 .2 58.6 42.5 34.1 0 60.8 39.1 38.3 0 63.1 37.6 41.4 0 65.1 36.9 43.8 .1 66.9 36.4 45.9 .2 68.5 36.2 47.7 .3 70.1 36 49.5 .4 71.6 36 51.1 .6 73.3 54 42.4 .8 74.9 57.7 42 1 76.5 60.8 42 1.2 77.7 63 42 1.4 79.1 65.3 42.2 1.8 81.1 68.4 42.6 2.1 82.5 70.5 43 2.5 84.3 72.9 43.7 3 86.1 75.2 44.4 3.5 87.9 77.3 45.3 3.9 89 78.5 45.9 4.3 90.3 80 46.6 5 92 81.8 47.7 5.5 93.1 82.9 48.4 6.2 94.8 40.9 74.8 6.8 96 40 76.8 7.6 97.8 39.5 79.4 8.3 99 39.4 81.1 8.9 100.1 39.4 82.5 9.6 101.2 39.6 83.9 10.6 102.8 39.9 85.9 11.6 104.2 40.5 87.5 12.6 105.5 41.2 88.9 13.8 107 42.4 90.5 15.1 108.4 44 91.7 15.9 109.3 45.2 92.4 17.1 110.5 47.2 93.1 18.5 111.8 50.1 93.5 20.1 113.1 54.2 93.4 21.4 114.1 97.2 70.3 22.8 115.1 97.6 72 24.2 116 97.8 73.5 25.6 116.9 98.1 75.1 27.2 117.8 98.2 76.8 29.2 118.8 98.4 78.8 31 119.6 98.4 80.6 32.6 120.2 98.4 82.2 34.1 120.8 98.4 83.7 35.9 121.4 98.3 85.3 37.5 121.8 98.2 86.8 40 122.4 97.9 89 41.6 122.7 97.7 90.3 44.4 123.2 97.2 92.7 46.4 123.4 96.8 94.3 49.2 123.6 96.1 96.5 51.5 123.7 95.5 98.3 54.2 123.7 94.6 100.3 57.6 123.5 93.2 102.9 60.2 123.3 92.1 104.9 63.5 122.8 90.4 107.2 68.1 121.8 87.7 110.4 74.8 119.4 82.8 114.8"></polyline><polyline class="uuid-90d8a5ef-4445-46a2-bbf3-565a576ff738" points="134.4 29.9 170.7 8.9 138.5 29.3 172.2 9.9 141.1 29.5 173.4 10.8 143.3 29.9 174.7 11.8 144.9 30.7 175.9 12.8 146.3 31.5 177 13.8 147.3 32.4 177.9 14.7 148.1 33.4 178.8 15.6 148.9 34.5 179.7 16.7 149.4 35.5 180.5 17.5 150 36.9 181.5 18.7 150.5 38.2 182.3 19.8 151 39.5 183.1 20.9 151.4 41.4 184.2 22.5 151.8 42.9 184.9 23.8 152.1 44.8 185.8 25.3 152.2 46.1 186.4 26.4 152.4 47.8 187.1 27.8 152.6 49.2 187.6 28.9 152.7 51.2 188.4 30.6 152.8 52.5 188.8 31.7 152.9 53.9 189.3 32.9 153 56 189.9 34.7 153 57.7 190.3 36.1 153 59 190.7 37.2 153 60.2 191 38.3 153 62.2 191.4 40 153 64.2 191.8 41.8 153 65.6 192.1 43.1 153 67.1 192.3 44.4 152.9 69.4 192.7 46.4 152.8 71.6 192.9 48.4 152.6 73.6 193.2 50.2 152.4 76 193.4 52.3 152.3 77.4 193.5 53.6 152.1 78.6 193.6 54.7 151.8 80.3 193.6 56.1 151.5 82.1 193.7 57.7 150.9 84.5 193.8 59.7 150.1 86.7 193.8 61.5 148.9 89.2 193.8 63.3 146.9 91.6 193.7 64.6"></polyline><polyline class="uuid-90d8a5ef-4445-46a2-bbf3-565a576ff738" points="104.6 10.2 112.7 5.5 99.1 14.9 119.8 3 96.2 18.2 124.4 1.9 94.2 20.9 128.1 1.3 92.1 24 132.4 .8 90.4 27.3 136.6 .6 89.6 29.1 138.9 .6 88.3 32 142.7 .7 87.7 33.7 144.8 .8 86.9 36.1 147.6 1.1 86.3 38.2 150.1 1.4 85.8 40.2 152.3 1.8 85.3 42.8 155.2 2.4 85 44.4 156.9 2.8 84.7 46.2 158.9 3.4 84.4 47.9 160.6 3.9 84.1 50.1 162.8 4.8 84 51.6 164.1 5.3 83.8 53.4 165.8 6.1 83.7 55.6 167.7 7.1 83.6 57.3 169.1 7.9 83.5 59.5 129.7 32.9 83.5 61.8 127.5 36.4 83.5 63.8 126.5 38.9 83.6 65.6 125.9 41.2 83.7 67.2 125.5 43 83.7 68.8 125.2 44.8 83.8 70.3 125 46.6 84 72 124.8 48.4 84.2 73.7 124.6 50.3 84.4 75.2 124.5 52 84.5 76.5 124.5 53.4 84.7 77.9 124.4 55 85.1 79.9 124.3 57.2 85.4 81.3 124.3 58.9 85.8 83.1 124.3 60.9 86.2 84.9 124.3 63 86.7 86.7 124.3 65 87 87.8 124.3 66.3 87.5 89.2 124.4 67.9 88.1 90.9 124.4 70 88.5 92.1 124.5 71.3 89.2 93.7 124.6 73.3 89.8 95 124.8 74.8 90.6 96.8 125 76.9 91.3 98 125.2 78.5 91.9 99.1 125.4 79.8 92.5 100.2 125.6 81.1 93.5 101.8 126 83 94.5 103.2 126.5 84.7 95.4 104.5 127 86.3 96.7 106.1 127.8 88.1 97.9 107.5 128.7 89.7 98.8 108.4 129.5 90.7 99.9 109.6 130.7 91.8 101.3 110.9 132.3 93 102.9 112.2 134.5 93.9 104.2 113.2 136.8 94.4 105.6 114.2 139.9 94.4 106.9 115.1 193.7 65 108.4 116 193.7 66.8 110 116.9 193.6 68.6 112 117.9 193.4 70.9 113.8 118.6 193.2 72.8 115.4 119.3 193 74.5 116.9 119.9 192.8 76 118.7 120.4 192.6 77.8 120.3 120.9 192.3 79.3 122.8 121.5 191.9 81.6 124.3 121.8 191.5 83 127.1 122.3 190.9 85.5 128.9 122.6 190.5 87.1 131.7 122.9 189.7 89.4 133.8 123 189.1 91.1 136.3 123.1 188.3 93.1 139.4 123.2 187.2 95.6 141.7 123.1 186.3 97.3 144.4 123 185.2 99.4 147.7 122.7 183.6 101.9 151.5 122.1 181.6 104.8 157.1 120.9 178.1 108.8 162.4 119.1 174.2 112.3"></polyline></g></g></g></svg>