<svg xmlns="http://www.w3.org/2000/svg" id="uuid-676940a7-d7de-429f-a2d0-fbf349e99db5" viewBox="0 0 224.9 98.6"><defs><style>.uuid-a40bef65-4ece-4503-a57f-36d547d37b2a{fill:none;stroke:#003049;stroke-linecap:round;stroke-linejoin:round;}.uuid-cad0de35-f8f7-4fa1-8446-e70d45a6defa{fill:#003049;}</style></defs><g id="uuid-a8f2aece-5302-45d3-b17c-897b351568af"><g><g><g><path class="uuid-cad0de35-f8f7-4fa1-8446-e70d45a6defa" d="M26.4,50.7l-2.1,1.6c-1.2-1.5-2.6-2.7-4.2-3.5-1.6-.8-3.4-1.2-5.4-1.2s-4.1,.5-6,1.5c-1.8,1-3.2,2.4-4.3,4.2s-1.5,3.7-1.5,5.9c0,3.3,1.1,6,3.4,8.2s5.1,3.3,8.5,3.3,6.9-1.5,9.5-4.4l2.1,1.6c-1.3,1.7-3,3-5,4-2,.9-4.2,1.4-6.7,1.4-4.7,0-8.4-1.6-11.1-4.7C1.3,65.9,.1,62.7,.1,59s1.4-7.3,4.1-9.9c2.8-2.7,6.2-4,10.4-4s4.8,.5,6.8,1.5c2,1,3.7,2.4,5,4.2Z"></path><path class="uuid-cad0de35-f8f7-4fa1-8446-e70d45a6defa" d="M51.2,52.7v19.9h-2.5v-3.4c-1.1,1.3-2.3,2.3-3.6,2.9s-2.8,1-4.4,1c-2.8,0-5.2-1-7.2-3.1s-3-4.5-3-7.5,1-5.3,3-7.4c2-2,4.4-3.1,7.3-3.1s3.1,.3,4.4,1c1.3,.7,2.5,1.7,3.5,3.1v-3.7h2.5Zm-10.2,2c-1.4,0-2.7,.4-3.9,1.1-1.2,.7-2.2,1.7-2.9,2.9-.7,1.3-1.1,2.6-1.1,4s.4,2.7,1.1,4c.7,1.3,1.7,2.3,2.9,3,1.2,.7,2.5,1.1,3.9,1.1s2.7-.4,4-1.1c1.3-.7,2.2-1.7,2.9-2.9,.7-1.2,1-2.6,1-4.1,0-2.3-.8-4.2-2.3-5.8-1.5-1.5-3.4-2.3-5.6-2.3Z"></path><path class="uuid-cad0de35-f8f7-4fa1-8446-e70d45a6defa" d="M55.1,52.7h2.7l6.7,14.5,6.6-14.5h2.7l-9.1,19.9h-.5l-9.2-19.9Z"></path><path class="uuid-cad0de35-f8f7-4fa1-8446-e70d45a6defa" d="M97.5,52.7v19.9h-2.5v-3.4c-1.1,1.3-2.3,2.3-3.6,2.9s-2.8,1-4.4,1c-2.8,0-5.2-1-7.2-3.1s-3-4.5-3-7.5,1-5.3,3-7.4c2-2,4.4-3.1,7.3-3.1s3.1,.3,4.4,1c1.3,.7,2.5,1.7,3.5,3.1v-3.7h2.5Zm-10.2,2c-1.4,0-2.7,.4-3.9,1.1-1.2,.7-2.2,1.7-2.9,2.9-.7,1.3-1.1,2.6-1.1,4s.4,2.7,1.1,4,1.7,2.3,2.9,3c1.2,.7,2.5,1.1,3.9,1.1s2.7-.4,4-1.1,2.2-1.7,2.9-2.9c.7-1.2,1-2.6,1-4.1,0-2.3-.8-4.2-2.3-5.8-1.5-1.5-3.4-2.3-5.6-2.3Z"></path><path class="uuid-cad0de35-f8f7-4fa1-8446-e70d45a6defa" d="M123.1,52.7v27.2h-2.5v-10.7c-1.1,1.3-2.3,2.3-3.6,2.9s-2.8,1-4.4,1c-2.8,0-5.2-1-7.2-3.1s-3-4.5-3-7.5,1-5.3,3-7.4c2-2,4.4-3.1,7.3-3.1s3.1,.3,4.4,1c1.3,.7,2.5,1.7,3.5,3.1v-3.7h2.5Zm-10.2,2c-1.4,0-2.7,.4-3.9,1.1-1.2,.7-2.2,1.7-2.9,2.9-.7,1.3-1.1,2.6-1.1,4s.4,2.7,1.1,4c.7,1.3,1.7,2.3,2.9,3,1.2,.7,2.5,1.1,3.9,1.1s2.7-.4,4-1.1,2.2-1.7,2.9-2.9c.7-1.2,1-2.6,1-4.1,0-2.3-.8-4.2-2.3-5.8-1.5-1.5-3.4-2.3-5.6-2.3Z"></path><path class="uuid-cad0de35-f8f7-4fa1-8446-e70d45a6defa" d="M128.5,52.7h2.6v9.3c0,2.3,.1,3.8,.4,4.7,.4,1.2,1.1,2.2,2.1,2.9,1,.7,2.3,1.1,3.7,1.1s2.6-.3,3.6-1,1.7-1.6,2.1-2.7c.3-.8,.4-2.4,.4-4.9v-9.3h2.6v9.8c0,2.7-.3,4.8-1,6.2-.6,1.4-1.6,2.5-2.9,3.3-1.3,.8-2.9,1.2-4.8,1.2s-3.6-.4-4.9-1.2c-1.3-.8-2.3-1.9-2.9-3.3-.6-1.4-1-3.5-1-6.4v-9.6Z"></path><path class="uuid-cad0de35-f8f7-4fa1-8446-e70d45a6defa" d="M152.5,44.5c.6,0,1.1,.2,1.5,.6,.4,.4,.6,.9,.6,1.5s-.2,1.1-.6,1.5c-.4,.4-.9,.6-1.5,.6s-1.1-.2-1.5-.6c-.4-.4-.6-.9-.6-1.5s.2-1.1,.6-1.5c.4-.4,.9-.6,1.5-.6Zm-1.3,8.2h2.6v19.9h-2.6v-19.9Z"></path><path class="uuid-cad0de35-f8f7-4fa1-8446-e70d45a6defa" d="M159.1,52.7h2.6v3.6c1-1.4,2.2-2.4,3.4-3.1,1.2-.7,2.6-1,4.1-1s2.8,.4,4,1.1c1.2,.8,2,1.8,2.6,3.1s.8,3.3,.8,6v10.2h-2.6v-9.5c0-2.3,0-3.8-.3-4.6-.3-1.3-.9-2.3-1.7-3-.8-.7-1.9-1-3.3-1s-2.9,.5-4.2,1.5c-1.2,1-2,2.3-2.4,3.8-.2,1-.4,2.8-.4,5.4v7.3h-2.6v-19.9Z"></path><path class="uuid-cad0de35-f8f7-4fa1-8446-e70d45a6defa" d="M182,45h2.6v11.2c1-1.4,2.2-2.4,3.4-3.1,1.2-.7,2.6-1,4-1s2.8,.4,4,1.1c1.2,.8,2,1.8,2.6,3,.5,1.3,.8,3.3,.8,6v10.2h-2.6v-9.5c0-2.3,0-3.8-.3-4.6-.3-1.3-.9-2.3-1.7-3-.8-.7-1.9-1-3.3-1s-2.9,.5-4.2,1.5c-1.2,1-2,2.3-2.4,3.8-.2,1-.4,2.8-.4,5.4v7.3h-2.6v-27.6Z"></path><path class="uuid-cad0de35-f8f7-4fa1-8446-e70d45a6defa" d="M214.2,52.2c3.1,0,5.6,1.1,7.6,3.3,1.8,2,2.7,4.4,2.7,7.2s-1,5.2-2.9,7.3-4.4,3.1-7.5,3.1-5.5-1-7.5-3.1-2.9-4.5-2.9-7.3,.9-5.1,2.7-7.2c2-2.2,4.6-3.3,7.6-3.3Zm0,2.5c-2.1,0-4,.8-5.5,2.4-1.5,1.6-2.3,3.5-2.3,5.7s.3,2.8,1,4c.7,1.2,1.6,2.2,2.8,2.9,1.2,.7,2.5,1,3.9,1s2.7-.3,3.9-1c1.2-.7,2.1-1.6,2.8-2.9,.7-1.2,1-2.6,1-4,0-2.2-.8-4.1-2.3-5.7s-3.4-2.4-5.5-2.4Z"></path></g><g><path class="uuid-cad0de35-f8f7-4fa1-8446-e70d45a6defa" d="M89.1,80.7v14.2h-1.3v-1.8c-.6,.7-1.2,1.2-1.9,1.5-.7,.3-1.4,.5-2.2,.5-1.4,0-2.7-.5-3.7-1.6-1-1-1.5-2.3-1.5-3.8s.5-2.7,1.5-3.8c1-1,2.3-1.6,3.7-1.6s1.6,.2,2.3,.5c.7,.4,1.3,.9,1.8,1.6v-5.8h1.3Zm-5.3,4.9c-.7,0-1.4,.2-2,.5-.6,.4-1.1,.9-1.5,1.5s-.5,1.3-.5,2.1,.2,1.4,.6,2.1,.9,1.2,1.5,1.5c.6,.4,1.3,.5,2,.5s1.4-.2,2-.5c.6-.4,1.1-.9,1.5-1.5,.3-.6,.5-1.3,.5-2.1,0-1.2-.4-2.2-1.2-3s-1.7-1.2-2.9-1.2Z"></path><path class="uuid-cad0de35-f8f7-4fa1-8446-e70d45a6defa" d="M100.7,91.5l1.1,.6c-.4,.7-.8,1.3-1.3,1.7-.5,.4-1,.8-1.6,1s-1.3,.3-2,.3c-1.7,0-3-.5-3.9-1.6-.9-1.1-1.4-2.3-1.4-3.7s.4-2.5,1.2-3.5c1-1.3,2.4-1.9,4-1.9s3.1,.7,4.2,2c.7,.9,1.1,2.1,1.1,3.5h-9.2c0,1.2,.4,2.2,1.1,2.9,.7,.8,1.6,1.1,2.7,1.1s1,0,1.5-.3,.9-.4,1.3-.7c.3-.3,.7-.8,1.1-1.5Zm0-2.8c-.2-.7-.4-1.3-.8-1.7-.3-.4-.8-.8-1.3-1-.6-.3-1.1-.4-1.7-.4-1,0-1.9,.3-2.6,1-.5,.5-.9,1.2-1.2,2.1h7.6Z"></path><path class="uuid-cad0de35-f8f7-4fa1-8446-e70d45a6defa" d="M109.7,85.8l-.8,.9c-.7-.7-1.4-1-2.1-1s-.8,.1-1.1,.4c-.3,.3-.5,.6-.5,1s.1,.6,.4,.9c.3,.3,.8,.7,1.6,1.1,1,.5,1.6,1,2,1.5,.3,.5,.5,1,.5,1.6s-.3,1.5-.9,2.1-1.3,.9-2.2,.9-1.2-.1-1.7-.4-1-.6-1.3-1.1l.8-.9c.7,.8,1.4,1.1,2.1,1.1s1-.2,1.3-.5,.6-.7,.6-1.2-.1-.7-.4-1c-.2-.3-.8-.7-1.7-1.1-.9-.5-1.6-.9-1.9-1.4-.3-.5-.5-1-.5-1.6s.3-1.4,.8-1.9c.5-.5,1.2-.8,2-.8s1.9,.5,2.8,1.4Z"></path><path class="uuid-cad0de35-f8f7-4fa1-8446-e70d45a6defa" d="M122,86.8l-1,.6c-.9-1.2-2.1-1.8-3.7-1.8s-2.3,.4-3.1,1.2-1.2,1.8-1.2,2.9,.2,1.4,.6,2.1c.4,.7,.9,1.2,1.6,1.5,.7,.4,1.4,.5,2.2,.5,1.5,0,2.7-.6,3.7-1.8l1,.7c-.5,.7-1.1,1.3-2,1.7-.8,.4-1.8,.6-2.8,.6-1.6,0-3-.5-4-1.5-1.1-1-1.6-2.3-1.6-3.7s.2-1.9,.7-2.8c.5-.8,1.2-1.5,2.1-2,.9-.5,1.8-.7,2.9-.7s1.3,.1,2,.3c.6,.2,1.2,.5,1.6,.8s.8,.8,1.1,1.3Z"></path><path class="uuid-cad0de35-f8f7-4fa1-8446-e70d45a6defa" d="M129.3,84.4c1.6,0,2.9,.6,3.9,1.7,.9,1,1.4,2.3,1.4,3.7s-.5,2.7-1.5,3.7-2.3,1.6-3.8,1.6-2.8-.5-3.8-1.6c-1-1.1-1.5-2.3-1.5-3.7s.5-2.6,1.4-3.7c1-1.1,2.3-1.7,3.9-1.7Zm0,1.3c-1.1,0-2,.4-2.8,1.2s-1.2,1.8-1.2,2.9,.2,1.4,.5,2.1c.4,.6,.8,1.1,1.5,1.5s1.3,.5,2,.5,1.4-.2,2-.5,1.1-.8,1.5-1.5c.4-.6,.5-1.3,.5-2.1,0-1.1-.4-2.1-1.2-2.9-.8-.8-1.7-1.2-2.8-1.2Z"></path><path class="uuid-cad0de35-f8f7-4fa1-8446-e70d45a6defa" d="M137.1,84.7h1.3v1.8c.5-.7,.9-1.1,1.4-1.4,.7-.4,1.4-.6,2.1-.6s1,0,1.4,.3c.4,.2,.8,.5,1.1,.8,.3,.3,.5,.8,.7,1.4,.4-.8,1-1.4,1.6-1.8s1.4-.6,2.1-.6,1.3,.2,1.9,.5c.5,.4,.9,.9,1.2,1.5,.3,.6,.4,1.6,.4,2.9v5.6h-1.3v-5.6c0-1.1,0-1.8-.2-2.3-.2-.4-.4-.7-.8-1-.4-.3-.8-.4-1.4-.4s-1.2,.2-1.7,.6-.9,.9-1.2,1.5c-.2,.6-.4,1.7-.4,3.1v4h-1.3v-5.2c0-1.2,0-2.1-.2-2.5-.2-.4-.4-.8-.8-1.1-.4-.3-.8-.4-1.4-.4s-1.2,.2-1.7,.5-.9,.9-1.2,1.5c-.3,.6-.4,1.6-.4,2.8v4.3h-1.3v-10.2Z"></path><path class="uuid-cad0de35-f8f7-4fa1-8446-e70d45a6defa" d="M155.1,84.7h1.3v1.9c.5-.7,1.1-1.2,1.8-1.6,.7-.4,1.4-.5,2.3-.5,1.5,0,2.7,.5,3.7,1.6,1,1,1.5,2.3,1.5,3.8s-.5,2.8-1.5,3.8c-1,1-2.3,1.6-3.7,1.6s-1.6-.2-2.2-.5-1.3-.8-1.8-1.5v5.5h-1.3v-14Zm5.3,1c-1.1,0-2.1,.4-2.9,1.2s-1.2,1.8-1.2,3,.2,1.5,.5,2.1c.3,.6,.8,1.1,1.5,1.5s1.3,.5,2,.5,1.4-.2,2-.5c.6-.4,1.1-.9,1.5-1.5,.4-.7,.6-1.3,.6-2.1s-.2-1.4-.5-2.1-.9-1.2-1.5-1.5c-.6-.4-1.3-.5-2-.5Z"></path><path class="uuid-cad0de35-f8f7-4fa1-8446-e70d45a6defa" d="M168,80.7h1.3v14.2h-1.3v-14.2Z"></path><path class="uuid-cad0de35-f8f7-4fa1-8446-e70d45a6defa" d="M172.5,80.4c.3,0,.6,.1,.8,.3,.2,.2,.3,.5,.3,.8s-.1,.5-.3,.8c-.2,.2-.5,.3-.8,.3s-.5-.1-.8-.3-.3-.5-.3-.8,.1-.6,.3-.8,.5-.3,.8-.3Zm-.7,4.2h1.3v10.2h-1.3v-10.2Z"></path><path class="uuid-cad0de35-f8f7-4fa1-8446-e70d45a6defa" d="M185.9,86.8l-1,.6c-.9-1.2-2.1-1.8-3.7-1.8s-2.3,.4-3.1,1.2-1.2,1.8-1.2,2.9,.2,1.4,.6,2.1c.4,.7,.9,1.2,1.6,1.5,.7,.4,1.4,.5,2.2,.5,1.5,0,2.7-.6,3.7-1.8l1,.7c-.5,.7-1.1,1.3-2,1.7-.8,.4-1.8,.6-2.8,.6-1.6,0-3-.5-4-1.5-1.1-1-1.6-2.3-1.6-3.7s.2-1.9,.7-2.8c.5-.8,1.2-1.5,2.1-2,.9-.5,1.8-.7,2.9-.7s1.3,.1,2,.3c.6,.2,1.2,.5,1.6,.8s.8,.8,1.1,1.3Z"></path><path class="uuid-cad0de35-f8f7-4fa1-8446-e70d45a6defa" d="M198.6,84.7v10.2h-1.3v-1.8c-.6,.7-1.2,1.2-1.9,1.5s-1.4,.5-2.2,.5c-1.4,0-2.7-.5-3.7-1.6-1-1-1.5-2.3-1.5-3.8s.5-2.7,1.5-3.8c1-1,2.3-1.6,3.7-1.6s1.6,.2,2.3,.5c.7,.4,1.3,.9,1.8,1.6v-1.9h1.3Zm-5.3,1c-.7,0-1.4,.2-2,.5s-1.1,.9-1.5,1.5c-.4,.7-.5,1.3-.5,2.1s.2,1.4,.6,2.1c.4,.7,.9,1.2,1.5,1.5,.6,.4,1.3,.5,2,.5s1.4-.2,2-.5,1.1-.9,1.5-1.5c.3-.6,.5-1.3,.5-2.1,0-1.2-.4-2.2-1.2-3-.8-.8-1.7-1.2-2.9-1.2Z"></path><path class="uuid-cad0de35-f8f7-4fa1-8446-e70d45a6defa" d="M211.7,80.7v14.2h-1.3v-1.8c-.6,.7-1.2,1.2-1.9,1.5s-1.4,.5-2.2,.5c-1.4,0-2.7-.5-3.7-1.6-1-1-1.5-2.3-1.5-3.8s.5-2.7,1.5-3.8c1-1,2.3-1.6,3.7-1.6s1.6,.2,2.3,.5c.7,.4,1.3,.9,1.8,1.6v-5.8h1.3Zm-5.3,4.9c-.7,0-1.4,.2-2,.5s-1.1,.9-1.5,1.5-.5,1.3-.5,2.1,.2,1.4,.6,2.1c.4,.7,.9,1.2,1.5,1.5,.6,.4,1.3,.5,2,.5s1.4-.2,2-.5c.6-.4,1.1-.9,1.5-1.5,.3-.6,.5-1.3,.5-2.1,0-1.2-.4-2.2-1.2-3s-1.7-1.2-2.9-1.2Z"></path><path class="uuid-cad0de35-f8f7-4fa1-8446-e70d45a6defa" d="M219.5,84.4c1.6,0,2.9,.6,3.9,1.7,.9,1,1.4,2.3,1.4,3.7s-.5,2.7-1.5,3.7c-1,1.1-2.3,1.6-3.8,1.6s-2.8-.5-3.8-1.6-1.5-2.3-1.5-3.7,.5-2.6,1.4-3.7c1-1.1,2.3-1.7,3.9-1.7Zm0,1.3c-1.1,0-2,.4-2.8,1.2s-1.2,1.8-1.2,2.9,.2,1.4,.5,2.1c.4,.6,.8,1.1,1.5,1.5s1.3,.5,2,.5,1.4-.2,2-.5c.6-.3,1.1-.8,1.5-1.5,.4-.6,.5-1.3,.5-2.1,0-1.1-.4-2.1-1.2-2.9-.8-.8-1.7-1.2-2.8-1.2Z"></path></g></g><g><polyline class="uuid-a40bef65-4ece-4503-a57f-36d547d37b2a" points="2.6 31.4 4.5 30.2 1.8 33.1 6.6 30.3 1.4 34.8 4.3 33.1 1 36.3 3.2 35.1 .8 38 2.8 36.9 .6 39.7 2.5 38.7 .5 41.9 2.3 40.9 1.7 42.6 2.2 42.3"></polyline><polyline class="uuid-a40bef65-4ece-4503-a57f-36d547d37b2a" points="187.2 25.6 212.9 10.8 189.2 26.6 214.2 12.2 190.3 27.3 215 13.1 191.1 28.1 215.7 13.9 191.9 29.5 216.6 15.2 192.4 31.4 217.7 16.7 192.5 33.2 218.6 18.2 192.5 34.8 219.2 19.4 192.5 37.1 220.1 21.1 192.5 38.5 220.6 22.3 192.5 40.6 221.3 24 192.5 42.4 221.8 25.5 195.4 42.6 222.3 27.1 198.5 42.6 222.7 28.6 201.1 42.6 223 29.9 204.3 42.6 223.4 31.6 207.2 42.6 223.6 33.1 210 42.6 223.9 34.6 213.2 42.6 224.1 36.3 215.4 42.6 224.2 37.5 217.7 42.6 224.3 38.7 219.9 42.6 224.4 40 222.1 42.6 224.4 41.2"></polyline><polyline class="uuid-a40bef65-4ece-4503-a57f-36d547d37b2a" points="148.4 31.5 199.1 2.2 152.5 31 201.1 2.9 154.3 31.3 202.4 3.5 156.5 32.1 204.4 4.4 158.4 33.2 206.4 5.5 159.5 34.1 207.7 6.3 160.6 35.3 209.1 7.3 161.3 36.2 210 8.1 162.1 37.7 211.4 9.3 162.7 39.4 212.7 10.5 163.1 41.3 186.9 27.6 164.2 42.6 186.9 29.5 166.6 42.6 186.9 30.8 170.4 42.6 186.9 33 172.9 42.6 186.9 34.5 175.2 42.6 186.9 35.8 179.2 42.6 186.9 38.1 181.4 42.6 187 39.4 185.1 42.6 187 41.5"></polyline><polyline class="uuid-a40bef65-4ece-4503-a57f-36d547d37b2a" points="124.4 33.9 181.3 1 127.3 33.9 184.9 .6 129.4 33.9 187.2 .5 130.3 35.2 190.3 .6 130.3 36.7 192.5 .8 130.3 38.8 195.4 1.2 130.3 40.4 197.3 1.7 130.3 42.6 142.8 35.4 133.4 42.6 141.2 38.1 135.9 42.6 140.6 39.8 139.7 42.6 140.3 42.2"></polyline><polyline class="uuid-a40bef65-4ece-4503-a57f-36d547d37b2a" points="114.5 34.1 154.2 11.2 117.5 33.7 158.2 10.2 120.8 34.1 175.7 2.4 121.7 35.2 123.9 33.9 122 36.9 123.9 35.8 122.1 38.4 123.9 37.3 122.1 39.8 123.9 38.7 122.1 41.7 123.9 40.6 123.2 42.6 123.9 42.1"></polyline><polyline class="uuid-a40bef65-4ece-4503-a57f-36d547d37b2a" points="126.4 15.8 131.7 12.7 123.7 18.6 135.6 11.7 121.2 22.2 140.2 11.2 120.2 24.2 142.6 11.3 119.1 27 145.9 11.5 118.2 29.6 149.4 11.6"></polyline><polyline class="uuid-a40bef65-4ece-4503-a57f-36d547d37b2a" points="104.2 34.3 107.7 32.3 107.8 34.2 111.3 32.2 111.5 34.2 115.1 32.2 111.6 35.3 153.3 11.3 111.6 36.7 113.8 35.5 111.7 38.2 113.8 37 111.7 40.4 113.8 39.1 111.7 41.8 113.8 40.6 113.3 42.6 113.8 42.3"></polyline><polyline class="uuid-a40bef65-4ece-4503-a57f-36d547d37b2a" points="94 34.3 97.4 32.4 97.3 34.3 100.6 32.4 100.8 34.3 104.2 32.3 101.4 36.1 103.7 34.7 101.4 37.8 103.7 36.5 101.4 39.8 103.7 38.5 101.4 41.8 103.7 40.5 103.2 42.6 103.7 42.3"></polyline><polyline class="uuid-a40bef65-4ece-4503-a57f-36d547d37b2a" points="83.9 34.4 87 32.6 86.7 34.4 89.9 32.5 90 34.4 93.3 32.5 91.2 35.6 96.7 32.4 91.2 37.7 93.5 36.3 91.2 39.1 93.5 37.8 91.2 41 93.5 39.6 91.9 42.6 93.5 41.6"></polyline><polyline class="uuid-a40bef65-4ece-4503-a57f-36d547d37b2a" points="73.6 34.7 77.1 32.7 76.7 34.3 79.5 32.7 79.7 34.4 82.8 32.6 80.8 35.4 85.7 32.6 81.1 36.5 83.4 35.2 81.3 38.5 83.4 37.3 81.3 40.1 83.4 38.9 81.3 41.9 83.4 40.7 82.6 42.6 83.4 42.1"></polyline><polyline class="uuid-a40bef65-4ece-4503-a57f-36d547d37b2a" points="63.3 34.8 66.9 32.7 67.2 34.8 70.8 32.7 70.3 34.8 73.9 32.7 70.8 35.9 76.4 32.7 70.8 37.6 72.8 36.4 70.8 39 72.8 37.8 70.8 40.5 72.8 39.3 70.8 42 72.8 40.8 71.8 42.6 72.9 42"></polyline><polyline class="uuid-a40bef65-4ece-4503-a57f-36d547d37b2a" points="53.3 34.9 56.5 33 56.8 34.9 60.2 32.9 59.7 34.9 63.3 32.8 60.6 35.6 65.5 32.8 60.6 37.5 62.8 36.3 60.6 39.5 62.8 38.3 60.6 40.8 62.8 39.6 60.6 42 62.8 40.8 62.3 42.6 62.8 42.3"></polyline><polyline class="uuid-a40bef65-4ece-4503-a57f-36d547d37b2a" points="41.6 35.1 45.1 33.1 44.7 35.1 48 33.2 47.5 35.1 50.7 33.2 50.5 35.5 54.6 33.1 50.5 36.7 52.8 35.3 50.5 38.1 52.8 36.7 50.5 40.3 52.8 39 50.5 42.4 52.8 41.1 52.3 42.6 52.8 42.3"></polyline><polyline class="uuid-a40bef65-4ece-4503-a57f-36d547d37b2a" points="24.7 25.5 26.9 24.2 24.9 26.9 29.7 24.1 25.9 27.8 31.1 24.8 27.1 29 31.7 26.4 27.9 29.8 30 28.5"></polyline><polyline class="uuid-a40bef65-4ece-4503-a57f-36d547d37b2a" points="6.1 32.2 9.3 30.4 8.4 32.2 11.6 30.3 11 32.1 14.7 29.9 13.9 32.1 17.6 29.9 17.1 32.1 20.9 29.9 19.5 32.1 23.3 29.9 22.8 32.1 26.6 29.9 25.5 32.1 30 29.6 27.8 32.1 31.3 30.1 31.6 32.1 33.6 31 34.1 32.4 35.5 31.6 35.6 32.8 37.1 32 37.2 33.5 39.2 32.4 38.5 34.8 41.9 32.8 39 36.1 44.3 33 39.2 37.9 41.1 36.8 39.2 39.9 41.1 38.8 39.2 41.1 41.1 40.1 40.1 42.6 41.1 42"></polyline><polyline class="uuid-a40bef65-4ece-4503-a57f-36d547d37b2a" points="9.3 25.4 11.5 24.1 9.8 27.3 14.9 24.4 10.8 28.1 16 25.1 11.7 29 16.2 26.4"></polyline></g></g></g></svg>